<svg viewBox="0 0 800.000000 312.000000" xmlns="http://www.w3.org/2000/svg">
<g transform="translate(0.000000,312.000000) scale(0.100000,-0.100000)"
fill="#FFFFFF" stroke="none">
<path d="M1120 2760 l-32 -40 -88 0 c-85 0 -89 -1 -109 -27 -12 -16 -26 -34
-31 -40 -6 -7 -33 -13 -60 -13 -33 0 -54 -5 -62 -16 -38 -45 -378 -383 -396
-393 -19 -10 -22 -20 -22 -71 0 -59 0 -60 -40 -80 -40 -20 -40 -21 -40 -80 0
-59 0 -60 -40 -80 -39 -20 -40 -21 -40 -75 0 -38 -5 -58 -16 -67 -68 -56 -66
-48 -62 -184 3 -115 1 -127 -16 -140 -11 -8 -30 -14 -43 -14 l-23 0 0 -320 0
-320 28 0 c40 0 52 -17 52 -76 0 -46 4 -55 27 -73 16 -12 34 -26 41 -31 7 -6
12 -34 12 -65 0 -46 3 -56 23 -66 19 -10 116 -107 155 -153 8 -11 29 -16 62
-16 27 0 54 -6 60 -13 5 -6 19 -24 31 -39 l20 -28 129 0 128 0 32 40 32 40 85
0 85 0 62 64 c33 36 67 72 74 80 8 11 29 16 62 16 33 0 54 5 62 16 39 46 136
143 156 153 19 10 22 20 22 71 0 56 2 60 29 75 16 8 39 28 51 45 12 17 35 37
51 45 27 15 29 19 29 75 0 57 1 60 33 76 17 9 35 22 39 28 4 6 8 49 8 96 0 47
4 90 8 96 4 6 22 19 40 28 35 18 35 19 33 131 -2 79 1 86 47 109 21 11 32 24
32 39 3 123 -2 721 -6 731 -3 7 -20 20 -39 29 -34 16 -35 18 -35 76 0 52 -3
62 -22 72 -19 10 -198 187 -236 233 -8 11 -29 16 -62 16 -27 0 -54 6 -60 13
-5 6 -19 24 -31 40 -20 26 -24 27 -109 27 l-88 0 -32 -40z m165 -240 c14 -22
29 -40 34 -40 5 0 17 -7 25 -16 24 -23 24 -505 0 -528 -8 -9 -19 -16 -24 -16
-5 0 -16 -7 -24 -16 -13 -12 -16 -40 -16 -144 0 -104 -3 -132 -16 -144 -8 -9
-19 -16 -24 -16 -5 0 -16 -7 -24 -16 -12 -12 -16 -37 -16 -102 0 -48 -4 -92
-8 -98 -4 -6 -22 -19 -39 -28 -32 -16 -33 -19 -33 -76 0 -59 0 -60 -40 -80
-40 -20 -40 -21 -40 -80 0 -56 -2 -60 -29 -75 -16 -8 -39 -28 -51 -45 -12 -17
-35 -37 -51 -45 -27 -15 -29 -19 -29 -75 0 -51 -3 -61 -22 -71 -13 -7 -75 -65
-139 -131 -113 -115 -118 -118 -160 -118 -38 0 -48 5 -85 43 -22 23 -48 48
-57 55 -24 18 -25 183 -1 206 8 9 19 16 24 16 5 0 16 7 24 16 13 12 16 40 16
144 0 104 3 132 16 144 8 9 19 16 24 16 5 0 16 7 24 16 12 12 16 37 16 104 0
67 4 92 16 104 8 9 19 16 24 16 5 0 16 7 24 16 12 12 16 37 16 102 0 48 4 92
8 98 4 6 22 19 40 28 31 16 32 19 32 76 0 59 0 60 40 80 40 20 40 21 40 80 0
59 0 60 40 80 40 20 40 21 40 80 0 59 0 60 40 80 40 20 40 21 40 80 0 51 3 61
22 71 28 15 197 185 221 222 25 39 52 34 82 -13z M3040 2760 l-32 -40 -88 0
c-85 0 -89 -1 -109 -27 -12 -16 -26 -34 -31 -40 -6 -7 -33 -13 -60 -13 -33 0
-54 -5 -62 -16 -38 -45 -297 -303 -316 -313 -19 -10 -22 -20 -22 -71 0 -56 -2
-60 -29 -75 -16 -8 -39 -28 -51 -45 -12 -17 -35 -37 -51 -45 -27 -15 -29 -19
-29 -75 0 -57 -1 -60 -32 -76 -18 -9 -36 -22 -40 -28 -4 -6 -8 -49 -8 -96 0
-47 -4 -90 -8 -96 -4 -6 -22 -19 -39 -28 -37 -19 -36 -13 -34 -171 1 -60 -2
-115 -6 -121 -4 -6 -23 -19 -40 -28 l-33 -17 0 -214 c0 -181 2 -216 16 -229 8
-9 19 -16 24 -16 5 0 16 -7 24 -16 12 -12 16 -37 16 -102 0 -48 4 -92 8 -98 4
-6 22 -19 40 -28 31 -16 32 -19 32 -76 0 -51 3 -61 23 -71 12 -6 56 -47 98
-90 l76 -79 85 0 86 0 32 -40 32 -40 88 0 88 0 32 40 32 40 88 0 c85 0 89 1
109 27 12 16 26 34 31 41 6 6 33 12 60 12 33 0 54 5 62 16 38 45 297 303 316
313 19 10 22 20 22 71 0 59 0 60 40 80 40 20 40 21 40 80 0 59 0 60 40 80 40
20 40 21 40 80 0 57 1 60 33 76 17 9 35 22 39 28 4 6 8 50 8 98 0 65 4 90 16
102 8 9 19 16 24 16 5 0 16 7 25 16 14 15 16 57 14 384 -1 202 1 372 5 379 4
6 4 27 0 46 -5 29 -14 40 -45 56 -39 19 -39 20 -39 79 0 51 -3 61 -22 71 -13
7 -75 65 -139 131 -115 117 -117 118 -162 118 -26 0 -51 6 -57 13 -5 6 -19 24
-31 40 -20 26 -24 27 -109 27 l-88 0 -32 -40z m222 -217 c17 -15 18 -39 18
-344 0 -284 -2 -330 -16 -343 -8 -9 -19 -16 -24 -16 -5 0 -16 -7 -24 -16 -12
-12 -16 -37 -16 -104 0 -67 -4 -92 -16 -104 -8 -9 -19 -16 -24 -16 -5 0 -16
-7 -24 -16 -12 -12 -16 -37 -16 -102 0 -48 -4 -92 -8 -98 -4 -6 -22 -19 -39
-28 -32 -16 -33 -19 -33 -76 0 -59 0 -60 -40 -80 -40 -20 -40 -21 -40 -80 0
-59 0 -60 -40 -80 -40 -20 -40 -21 -40 -80 0 -51 -3 -61 -22 -71 -13 -7 -93
-84 -180 -171 -153 -155 -157 -158 -199 -158 -79 0 -79 -1 -79 281 0 212 2
250 16 263 8 9 19 16 24 16 5 0 16 7 24 16 12 12 16 37 16 104 0 67 4 92 16
104 8 9 19 16 24 16 5 0 16 7 24 16 12 12 16 37 16 102 0 48 4 92 8 98 4 6 22
19 40 28 31 16 32 19 32 76 0 59 0 60 40 80 40 20 40 21 40 80 0 59 0 60 40
80 40 20 40 21 40 80 0 59 0 60 40 80 40 20 40 21 40 80 0 59 0 60 40 80 40
20 40 21 40 80 0 55 2 61 28 74 15 9 59 49 97 91 67 71 72 75 114 75 28 0 51
-6 63 -17z M4098 2709 c-14 -8 -18 -23 -18 -69 0 -59 0 -60 -40 -80 -40 -20
-40 -21 -40 -80 0 -57 -1 -60 -32 -76 -18 -9 -36 -22 -40 -28 -4 -6 -8 -51 -8
-99 l0 -88 -35 -20 c-27 -16 -35 -27 -35 -50 0 -17 7 -31 18 -36 9 -5 93 -6
185 -3 134 4 170 8 177 20 5 8 10 54 10 102 0 69 3 90 17 100 9 7 35 32 57 55
l41 42 369 1 c316 2 371 0 384 -13 22 -23 8 -61 -30 -78 -31 -13 -33 -17 -36
-72 -3 -55 -4 -58 -43 -77 -39 -20 -39 -21 -39 -80 0 -51 -3 -61 -22 -71 -13
-6 -57 -47 -98 -89 -41 -42 -85 -83 -97 -89 -20 -10 -23 -20 -23 -71 0 -51 -3
-61 -22 -71 -13 -7 -93 -83 -178 -169 -85 -86 -165 -162 -177 -169 -20 -10
-23 -20 -23 -71 0 -56 -2 -60 -29 -75 -16 -8 -39 -28 -51 -45 -12 -17 -35 -37
-51 -45 -27 -15 -29 -19 -29 -75 0 -56 -2 -60 -29 -75 -16 -8 -39 -28 -51 -45
-12 -17 -35 -37 -51 -45 -27 -15 -29 -19 -29 -75 0 -59 0 -60 -40 -80 -40 -20
-40 -21 -40 -80 0 -57 -1 -60 -32 -76 -18 -9 -36 -22 -40 -28 -4 -6 -8 -50 -8
-98 0 -66 4 -90 16 -102 13 -14 55 -16 304 -16 249 0 291 2 304 16 12 12 16
37 16 102 0 48 4 92 8 98 4 6 22 19 40 28 31 16 32 19 32 76 0 59 0 60 40 80
40 20 40 21 40 80 0 56 2 60 29 75 16 8 39 28 51 45 12 17 35 37 51 45 27 15
29 19 29 75 0 51 3 61 23 71 12 7 74 65 137 129 63 64 125 122 138 129 19 10
22 20 22 71 0 51 3 61 23 71 12 6 56 47 97 89 41 42 85 83 98 89 19 10 22 20
22 71 0 56 2 60 29 75 16 8 39 28 51 45 12 17 35 37 51 45 27 15 29 19 29 75
0 51 3 61 23 71 12 6 40 30 63 53 22 22 48 47 57 54 14 10 17 31 17 102 0 94
2 98 65 135 15 9 17 29 17 145 0 117 -2 135 -18 147 -14 10 -176 13 -823 13
-529 -1 -812 -4 -823 -11z M5936 2707 c-16 -12 -18 -31 -20 -148 l-1 -134 -30
-14 c-16 -8 -33 -19 -37 -25 -11 -16 -10 -54 2 -61 6 -4 286 -6 623 -6 l612 1
35 40 35 40 324 0 323 0 53 54 c29 29 61 65 70 80 12 18 26 26 46 26 l29 0 0
80 0 80 -1023 0 c-831 0 -1027 -2 -1041 -13z M6293 2160 c-321 -3 -516 -9
-522 -15 -5 -5 -11 -37 -13 -70 -3 -57 -5 -61 -35 -74 -63 -28 -67 -111 -7
-158 31 -23 34 -30 34 -78 0 -78 43 -111 85 -65 15 16 16 31 10 109 -7 83 -6
90 13 100 13 7 86 11 185 11 146 0 166 -2 180 -18 40 -44 27 -112 -28 -142
-27 -15 -30 -22 -35 -81 -5 -58 -7 -65 -34 -77 -15 -8 -36 -27 -45 -43 -9 -16
-24 -32 -33 -35 -9 -3 -31 -23 -48 -45 l-32 -39 -326 0 c-180 0 -332 -4 -338
-8 -37 -24 -41 -97 -7 -134 15 -17 40 -18 344 -18 l327 0 32 40 c29 37 35 40
80 40 33 0 54 5 62 16 39 46 136 143 156 153 19 10 22 20 22 71 0 56 2 60 29
75 16 8 39 28 51 45 12 17 35 37 51 45 27 15 29 19 29 75 0 56 2 60 30 75 16
8 38 28 47 43 26 40 30 42 125 42 l87 0 27 35 c14 19 32 35 39 35 16 0 45 33
45 53 0 23 -28 47 -53 45 -12 -2 -252 -5 -534 -8z"/>
</g>
</svg>